<svg width="17" height="17" viewBox="0 0 17 17" fill="none" xmlns="http://www.w3.org/2000/svg">
<rect x="16.75" y="16.75" width="16.5" height="16.5" rx="8.25" transform="rotate(-180 16.75 16.75)" stroke="#0B0B0B" stroke-width="0.5"/>
<path d="M8.378 3.9H9.522V10.14H8.378V3.9ZM8.95 13.13C8.69867 13.13 8.482 13.0433 8.3 12.87C8.12667 12.688 8.04 12.4713 8.04 12.22C8.04 11.96 8.12667 11.7433 8.3 11.57C8.482 11.3967 8.69867 11.31 8.95 11.31C9.20133 11.31 9.41367 11.3967 9.587 11.57C9.769 11.7433 9.86 11.96 9.86 12.22C9.86 12.4713 9.769 12.688 9.587 12.87C9.41367 13.0433 9.20133 13.13 8.95 13.13Z" fill="black"/>
</svg>
