<svg width="10" height="16" viewBox="0 0 10 16" fill="none" xmlns="http://www.w3.org/2000/svg">
<mask id="path-1-inside-1_841_23" fill="white">
<path d="M1.41402 0.666586L9.58398 7.99991L1.41402 15.3333L0.417318 14.4395L7.59152 7.99991L0.417317 1.56038L1.41402 0.666586Z"/>
</mask>
<path d="M1.41402 0.666586L9.58398 7.99991L1.41402 15.3333L0.417318 14.4395L7.59152 7.99991L0.417317 1.56038L1.41402 0.666586Z" fill="#0B0B0B"/>
<path d="M1.41402 0.666586L2.74997 -0.821781L1.41464 -2.02036L0.0787606 -0.822404L1.41402 0.666586ZM9.58398 7.99991L10.9199 9.48827L12.5781 7.99991L10.9199 6.51154L9.58398 7.99991ZM1.41402 15.3333L0.0787631 16.8222L1.41465 18.0202L2.74997 16.8216L1.41402 15.3333ZM0.417318 14.4395L-0.918635 12.9511L-2.57758 14.4402L-0.917937 15.9284L0.417318 14.4395ZM7.59152 7.99991L8.92747 9.48828L10.5856 7.99991L8.92747 6.51154L7.59152 7.99991ZM0.417317 1.56038L-0.917941 0.0713911L-2.57758 1.55968L-0.918634 3.04875L0.417317 1.56038ZM0.0780666 2.15495L8.24803 9.48828L10.9199 6.51154L2.74997 -0.821781L0.0780666 2.15495ZM8.24803 6.51155L0.0780657 13.8449L2.74997 16.8216L10.9199 9.48827L8.24803 6.51155ZM2.74927 13.8443L1.75257 12.9505L-0.917937 15.9284L0.0787631 16.8222L2.74927 13.8443ZM1.75327 15.9278L8.92747 9.48828L6.25557 6.51155L-0.918635 12.9511L1.75327 15.9278ZM8.92747 6.51154L1.75327 0.0720136L-0.918634 3.04875L6.25557 9.48828L8.92747 6.51154ZM1.75257 3.04937L2.74927 2.15557L0.0787606 -0.822404L-0.917941 0.0713911L1.75257 3.04937Z" fill="#0B0B0B" mask="url(#path-1-inside-1_841_23)"/>
</svg>
