<svg width="100" height="101" viewBox="0 0 100 101" fill="none" xmlns="http://www.w3.org/2000/svg">
<path d="M31.7808 0H30.6011C30.5221 0 30.4453 0.0897019 30.4453 0.179405V62.5686C30.4453 62.6583 30.5221 62.748 30.6011 62.748H36.9736C37.1294 62.748 37.2083 62.6583 37.2083 62.5686V31.6431H51.0521C58.7602 31.6431 64.9728 24.4912 64.9728 15.8216C64.9728 7.06224 58.7602 0 51.0521 0H31.7808ZM44.6817 31.1049H37.2083V6.16764C37.2083 3.57597 35.7938 1.34069 33.8268 0.448512H51.0521C54.9841 0.448512 58.2098 7.33135 58.2098 15.8216C58.2098 24.2245 54.9841 31.1049 51.0521 31.1049H44.6817Z" fill="#0B0B0B"/>
<path d="M45.0347 20.2468H43.855C43.776 20.2468 43.6992 20.3365 43.6992 20.4262V82.8154C43.6992 82.9051 43.776 82.9948 43.855 82.9948H50.2275C50.3833 82.9948 50.4622 82.9051 50.4622 82.8154V51.8899H64.306C72.0141 51.8899 78.2267 44.738 78.2267 36.0684C78.2267 27.3091 72.0141 20.2468 64.306 20.2468H45.0347ZM57.9356 51.3517H50.4622V26.4145C50.4622 23.8228 49.0477 21.5875 47.0807 20.6953H64.306C68.238 20.6953 71.4637 27.5782 71.4637 36.0684C71.4637 44.4713 68.238 51.3517 64.306 51.3517H57.9356Z" fill="#0B0B0B"/>
<path d="M7.47555 91.3509C7.47555 92.4952 7.14487 93.4164 6.48564 94.1147C5.83067 94.8129 4.84716 95.162 3.53297 95.162H1.16912V100.825H0V87.53H3.53297C4.83436 87.53 5.81574 87.8791 6.4771 88.5774C7.14274 89.2756 7.47555 90.2017 7.47555 91.3509ZM3.53297 94.0177C5.35918 94.0177 6.27229 93.1304 6.27229 91.3509C6.27229 90.466 6.05255 89.7968 5.6152 89.3435C5.18211 88.8853 4.48874 88.6549 3.53297 88.6549H1.16912V94.0177H3.53297Z" fill="#0B0B0B"/>
<path d="M10.5969 92.2911C10.8529 91.6462 11.2454 91.1444 11.7745 90.788C12.3079 90.434 12.9607 90.2546 13.7287 90.2546V91.6414H13.413C12.5639 91.6414 11.8812 91.9032 11.3649 92.4269C10.8529 92.9457 10.5969 93.8112 10.5969 95.0258V100.825H9.42773V90.4389H10.5969V92.2911Z" fill="#0B0B0B"/>
<path d="M19.5185 100.981C18.6587 100.981 17.8843 100.763 17.1973 100.321C16.5082 99.8825 15.9642 99.2619 15.5673 98.4594C15.1748 97.6521 14.9785 96.7114 14.9785 95.6374C14.9785 94.5586 15.1769 93.6179 15.5759 92.8154C15.9791 92.0081 16.5253 91.3875 17.2144 90.9535C17.9077 90.5147 18.6843 90.2941 19.5441 90.2941C20.4017 90.2941 21.1825 90.5147 21.8823 90.9535C22.5821 91.3875 23.1282 92.0081 23.5208 92.8154C23.9176 93.6179 24.1181 94.5586 24.1181 95.6374C24.1181 96.6993 23.9155 97.6351 23.5122 98.4497C23.1133 99.2594 22.5607 99.8825 21.8567 100.321C21.1569 100.763 20.3761 100.981 19.5185 100.981ZM19.5185 99.8171C20.1158 99.8171 20.6705 99.6619 21.1825 99.3516C21.6988 99.0413 22.117 98.5733 22.437 97.9454C22.7549 97.3199 22.9149 96.549 22.9149 95.6374C22.9149 94.721 22.757 93.9476 22.4455 93.3197C22.1319 92.6942 21.7159 92.2239 21.1996 91.9136C20.6876 91.6032 20.1329 91.4481 19.5355 91.4481C18.9318 91.4481 18.3707 91.6032 17.8544 91.9136C17.3424 92.2239 16.9327 92.6942 16.6255 93.3197C16.3183 93.9476 16.1647 94.721 16.1647 95.6374C16.1647 96.549 16.3183 97.3199 16.6255 97.9454C16.9327 98.5733 17.3381 99.0413 17.8458 99.3516C18.3579 99.6619 18.9147 99.8171 19.5185 99.8171Z" fill="#0B0B0B"/>
<path d="M33.706 91.3504C33.706 92.4947 33.3753 93.416 32.7161 94.1142C32.0611 94.8124 31.0776 95.1615 29.7634 95.1615H27.3996V100.825H26.2305V87.5295H29.7634C31.0648 87.5295 32.0462 87.8787 32.7076 88.5769C33.3732 89.2751 33.706 90.2012 33.706 91.3504ZM29.7634 94.0172C31.5897 94.0172 32.5028 93.1299 32.5028 91.3504C32.5028 90.4655 32.283 89.7963 31.8457 89.343C31.4126 88.8848 30.7192 88.6545 29.7634 88.6545H27.3996V94.0172H29.7634Z" fill="#0B0B0B"/>
<path d="M43.9533 95.1041C43.9533 95.5574 43.9405 95.9065 43.9192 96.1514H36.3327C36.3668 96.9345 36.5332 97.606 36.8362 98.1685C37.137 98.7261 37.5317 99.1455 38.0224 99.4292C38.5173 99.7152 39.0549 99.8559 39.6352 99.8559C40.3905 99.8559 41.0284 99.6498 41.5468 99.2352C42.0631 98.8158 42.4087 98.2509 42.5794 97.5381H43.8168C43.5949 98.554 43.117 99.3807 42.3831 100.021C41.6535 100.661 40.7382 100.981 39.6352 100.981C38.7755 100.981 38.0053 100.763 37.3226 100.321C36.6399 99.8825 36.1044 99.2619 35.7182 98.4594C35.3364 97.6521 35.1465 96.7114 35.1465 95.6374C35.1465 94.5586 35.3342 93.6155 35.7097 92.8057C36.0895 91.9911 36.6228 91.3705 37.3055 90.9438C37.9882 90.5123 38.7648 90.2941 39.6352 90.2941C40.5057 90.2941 41.2652 90.5123 41.9137 90.9438C42.5666 91.3705 43.0701 91.9499 43.4242 92.6797C43.7762 93.4046 43.9533 94.2119 43.9533 95.1041ZM42.7586 95.0653C42.7692 94.2895 42.6327 93.63 42.349 93.087C42.0631 92.5439 41.6769 92.1342 41.1884 91.8554C40.6977 91.5717 40.1643 91.4287 39.584 91.4287C38.7136 91.4287 37.9712 91.7463 37.3567 92.379C36.7423 93.0142 36.4009 93.9088 36.3327 95.0653H42.7586Z" fill="#0B0B0B"/>
<path d="M47.2648 92.2914C47.5208 91.6465 47.9134 91.1446 48.4425 90.7882C48.9758 90.4343 49.6287 90.2549 50.3967 90.2549V91.6416H50.081C49.2319 91.6416 48.5492 91.9035 48.0329 92.4271C47.5208 92.946 47.2648 93.8115 47.2648 95.0261V100.825H46.0957V90.4391H47.2648V92.2914Z" fill="#0B0B0B"/>
<path d="M55.7472 91.5641H53.6223V100.825H52.4532V91.5641H51.1816V90.4392H52.4532V89.7216C52.4532 88.5918 52.7049 87.7602 53.2127 87.2293C53.7247 86.7008 54.5482 86.4341 55.6875 86.4341V87.5687C54.9237 87.5687 54.3903 87.7336 54.0831 88.0633C53.7759 88.393 53.6223 88.9457 53.6223 89.7216V90.4392H55.7472V91.5641Z" fill="#0B0B0B"/>
<path d="M65.4844 90.4393V100.825H64.3153V99.0023C64.0465 99.6496 63.6347 100.144 63.0779 100.486C62.5189 100.828 61.8938 101 61.2005 101C60.1081 101 59.2142 100.617 58.5209 99.846C57.8318 99.0774 57.4883 97.9646 57.4883 96.51V90.4393H58.6403V96.3548C58.6403 97.487 58.8878 98.3501 59.3828 98.9441C59.882 99.5405 60.5626 99.8363 61.4223 99.8363C62.3034 99.8363 63.0053 99.5211 63.5302 98.8859C64.0529 98.2531 64.3153 97.3222 64.3153 96.093V90.4393H65.4844Z" fill="#0B0B0B"/>
<path d="M79.068 90.2546C80.1369 90.2546 81.0073 90.6401 81.6793 91.4086C82.3556 92.1723 82.6948 93.2803 82.6948 94.7349V100.825H81.5428V94.8901C81.5428 93.7652 81.2996 92.9069 80.8174 92.3105C80.3395 91.7093 79.6867 91.4086 78.8632 91.4086C78.0034 91.4086 77.3186 91.7335 76.8066 92.3784C76.2945 93.0257 76.0385 93.9664 76.0385 95.2004V100.825H74.8779V94.8901C74.8779 93.7652 74.639 92.9069 74.1611 92.3105C73.6832 91.7093 73.0261 91.4086 72.1898 91.4086C71.33 91.4086 70.6409 91.7335 70.1247 92.3784C69.6126 93.0257 69.3566 93.9664 69.3566 95.2004V100.825H68.1875V90.4389H69.3566V92.2329C69.6468 91.5881 70.0585 91.0959 70.594 90.7589C71.1274 90.4243 71.7247 90.2546 72.3861 90.2546C73.1755 90.2546 73.871 90.4728 74.4683 90.9044C75.0657 91.3311 75.4966 91.9614 75.7655 92.7954C76.0087 91.976 76.4311 91.348 77.0284 90.9141C77.6258 90.4753 78.3042 90.2546 79.068 90.2546Z" fill="#0B0B0B"/>
<path d="M93.5568 95.1036C93.5568 95.5569 93.544 95.906 93.5227 96.1509H85.9362C85.9703 96.934 86.1367 97.6055 86.4397 98.168C86.7405 98.7256 87.1352 99.145 87.6259 99.4287C88.1208 99.7147 88.6585 99.8554 89.2387 99.8554C89.994 99.8554 90.6319 99.6493 91.1503 99.2347C91.6666 98.8153 92.0122 98.2504 92.1829 97.5376H93.4203C93.1984 98.5535 92.7205 99.3802 91.9866 100.02C91.257 100.66 90.3417 100.98 89.2387 100.98C88.379 100.98 87.6088 100.762 86.9261 100.321C86.2434 99.882 85.7079 99.2614 85.3218 98.4589C84.9399 97.6516 84.75 96.7109 84.75 95.6369C84.75 94.5581 84.9377 93.615 85.3132 92.8052C85.693 91.9907 86.2263 91.37 86.909 90.9433C87.5917 90.5118 88.3683 90.2936 89.2387 90.2936C90.1092 90.2936 90.8687 90.5118 91.5173 90.9433C92.1701 91.37 92.6736 91.9494 93.0277 92.6792C93.3797 93.4041 93.5568 94.2114 93.5568 95.1036ZM92.3621 95.0648C92.3728 94.289 92.2362 93.6295 91.9525 93.0865C91.6666 92.5434 91.2804 92.1337 90.7919 91.8549C90.3012 91.5712 89.7678 91.4282 89.1875 91.4282C88.3171 91.4282 87.5747 91.7458 86.9602 92.3786C86.3458 93.0137 86.0045 93.9083 85.9362 95.0648H92.3621Z" fill="#0B0B0B"/>
<path d="M96.8664 92.2911C97.1224 91.6462 97.515 91.1444 98.044 90.788C98.5774 90.434 99.2302 90.2546 99.9983 90.2546V91.6414H99.6825C98.8334 91.6414 98.1507 91.9032 97.6344 92.4269C97.1224 92.9457 96.8664 93.8112 96.8664 95.0258V100.825H95.6973V90.4389H96.8664V92.2911Z" fill="#0B0B0B"/>
</svg>
