<svg width="50" height="50" viewBox="0 0 50 50" fill="none" xmlns="http://www.w3.org/2000/svg">
<rect x="49.75" y="49.75" width="49.5" height="49.5" rx="24.75" transform="rotate(-180 49.75 49.75)" stroke="#0B0B0B" stroke-width="0.5"/>
<rect x="45.9285" y="45.9286" width="41.8571" height="41.8571" rx="20.9286" transform="rotate(-180 45.9285 45.9286)" fill="#FEFEFE" stroke="#0B0B0B"/>
<path d="M43.354 25.3536C43.5493 25.1583 43.5493 24.8417 43.354 24.6465L40.1721 21.4645C39.9768 21.2692 39.6602 21.2692 39.465 21.4645C39.2697 21.6597 39.2697 21.9763 39.465 22.1716L42.2934 25L39.465 27.8284C39.2697 28.0237 39.2697 28.3403 39.465 28.5355C39.6602 28.7308 39.9768 28.7308 40.1721 28.5355L43.354 25.3536ZM7.00049 25.5L43.0005 25.5L43.0005 24.5L7.00049 24.5L7.00049 25.5Z" fill="#0B0B0B"/>
</svg>
