<svg width="26" height="26" viewBox="0 0 26 26" fill="none" xmlns="http://www.w3.org/2000/svg">
<path d="M25.8958 24.5454L18.4197 17.0694C20.091 15.0508 20.9207 12.466 20.7365 9.85178C20.5523 7.23756 19.3683 4.79473 17.4302 3.03053C15.4923 1.26634 12.9492 0.316339 10.3293 0.377807C7.70933 0.439263 5.21368 1.50746 3.36056 3.36058C1.50745 5.2137 0.439262 7.70936 0.377807 10.3293C0.316339 12.9493 1.26633 15.4924 3.03052 17.4303C4.7947 19.3684 7.23752 20.5524 9.85173 20.7366C12.4659 20.9208 15.0507 20.0911 17.0693 18.4198L24.5455 25.8958L25.8958 24.5454ZM2.28957 10.5701C2.28957 8.93237 2.77522 7.33138 3.68511 5.96963C4.595 4.60788 5.88826 3.54652 7.40135 2.91977C8.91444 2.29303 10.5794 2.12905 12.1856 2.44857C13.7919 2.76807 15.2674 3.55673 16.4256 4.71481C17.5836 5.87289 18.3723 7.34836 18.6918 8.95465C19.0113 10.561 18.8472 12.2259 18.2206 13.739C17.5938 15.2521 16.5325 16.5454 15.1707 17.4553C13.8089 18.3651 12.2079 18.8509 10.5703 18.8509C8.37481 18.8483 6.27005 17.9752 4.71767 16.4227C3.16529 14.8703 2.29206 12.7656 2.28957 10.5701Z" fill="#0B0B0B"/>
</svg>
