<svg width="55" height="83" viewBox="0 0 55 83" fill="none" xmlns="http://www.w3.org/2000/svg">
<path d="M2.24696 0H0.910763C0.82136 0 0.734375 0.0894682 0.734375 0.178937V62.4056C0.734375 62.4951 0.82136 62.5845 0.910763 62.5845H8.12815C8.30454 62.5845 8.39394 62.4951 8.39394 62.4056V31.5607H24.0731C32.8031 31.5607 39.8392 24.4274 39.8392 15.7803C39.8392 7.04385 32.8031 0 24.0731 0H2.24696ZM16.8581 31.0239H8.39394V6.15158C8.39394 3.56666 6.79196 1.33719 4.56416 0.447343H24.0731C28.5263 0.447343 32.1797 7.31225 32.1797 15.7803C32.1797 24.1614 28.5263 31.0239 24.0731 31.0239H16.8581Z" fill="#0B0B0B"/>
<path d="M17.2538 20.1941H15.9176C15.8282 20.1941 15.7412 20.2836 15.7412 20.373V82.5997C15.7412 82.6892 15.8282 82.7786 15.9176 82.7786H23.135C23.3114 82.7786 23.4008 82.6892 23.4008 82.5997V51.7548H39.0799C47.8099 51.7548 54.8461 44.6215 54.8461 35.9744C54.8461 27.2379 47.8099 20.1941 39.0799 20.1941H17.2538ZM31.865 51.218H23.4008V26.3457C23.4008 23.7607 21.7988 21.5313 19.571 20.6414H39.0799C43.5331 20.6414 47.1865 27.5063 47.1865 35.9744C47.1865 44.3555 43.5331 51.218 39.0799 51.218H31.865Z" fill="#0B0B0B"/>
</svg>
